<svg width="229" height="220" viewBox="0 0 229 220" fill="none" xmlns="http://www.w3.org/2000/svg">
<g clip-path="url(#clip0_2496_7201)">
<path d="M56.8662 111.045L126.128 134.963L84.1619 66.5957L56.8662 111.045Z" fill="#F9B233"/>
<path d="M210.165 188.779C207.873 187.949 206.286 185.945 206.286 183.56V0.0599699H100.312C97.2442 0.0599699 94.7051 -1.97924 93.7176 -4.84805C93.2239 -6.29973 92.2012 -7.88965 90.3321 -9.68697C88.9215 -11.035 87.1229 -12.072 85.1481 -12.2448C80.1051 -12.7287 75.7673 -9.51417 74.533 -5.05542C74.533 -5.05542 74.4978 -5.0209 74.4625 -4.98633C73.863 -3.36183 73.9335 0.0599699 66.8451 0.0599699H0.192871V136.795L77.7422 10.4637C79.0823 8.32078 81.5156 7.21472 84.09 7.21472C84.09 7.21472 84.0901 7.21472 84.1253 7.21472C84.1606 7.21472 84.1254 7.21472 84.1606 7.21472C86.735 7.21472 89.1683 8.28621 90.5084 10.4637L198.14 185.841C199.374 187.846 199.162 190.334 197.646 192.132C197.646 192.132 197.646 192.166 197.611 192.201C196.129 193.998 193.661 194.689 191.404 193.929L38.3856 141.115L1.00391 202.051H191.933C193.837 202.051 195.671 202.95 196.623 204.54C198.845 208.308 203.324 210.692 208.261 209.828C212.74 209.068 216.407 205.473 217.218 201.084C218.241 195.519 214.961 190.576 210.095 188.814L210.165 188.779Z" fill="#F9B233"/>
<path d="M223.427 218.738C226.192 218.738 228.434 216.541 228.434 213.83C228.434 211.119 226.192 208.922 223.427 208.922C220.661 208.922 218.419 211.119 218.419 213.83C218.419 216.541 220.661 218.738 223.427 218.738Z" fill="#F9B233"/>
<path d="M147.041 0.0644531L206.287 183.564V0.0644531H147.041Z" fill="url(#paint0_linear_2496_7201)"/>
<path d="M42.0536 0.0644531L0.263672 136.765V0.0644531H42.0536Z" fill="url(#paint1_linear_2496_7201)"/>
<path d="M22.8686 166.453L188.512 202.019H1.03906L22.8686 166.453Z" fill="url(#paint2_linear_2496_7201)"/>
</g>
<defs>
<linearGradient id="paint0_linear_2496_7201" x1="218.031" y1="106.694" x2="131.283" y2="-7.84466" gradientUnits="userSpaceOnUse">
<stop stop-color="#F9B233"/>
<stop offset="1" stop-color="#F39200"/>
</linearGradient>
<linearGradient id="paint1_linear_2496_7201" x1="-5.13199" y1="82.2229" x2="32.524" y2="-18.31" gradientUnits="userSpaceOnUse">
<stop stop-color="#F9B233"/>
<stop offset="1" stop-color="#F39200"/>
</linearGradient>
<linearGradient id="paint2_linear_2496_7201" x1="123.411" y1="214.566" x2="7.61303" y2="161.781" gradientUnits="userSpaceOnUse">
<stop stop-color="#F9B233"/>
<stop offset="1" stop-color="#F39200"/>
</linearGradient>
<clipPath id="clip0_2496_7201">
<rect width="229" height="220" fill="white"/>
</clipPath>
</defs>
</svg>
