<svg width="97" height="30" viewBox="0 0 97 30" fill="none" xmlns="http://www.w3.org/2000/svg">
<g clip-path="url(#clip0_2468_6587)">
<path d="M30.7402 8.36317H33.1761C33.6625 8.36317 34.0854 8.27053 34.4449 8.08928C34.8043 7.90401 35.0792 7.64624 35.2695 7.31596C35.4598 6.98165 35.5529 6.60304 35.5529 6.17207C35.5529 5.7411 35.4598 5.35845 35.2695 5.02817C35.0792 4.69387 34.8043 4.43609 34.4449 4.24678C34.0854 4.0615 33.6625 3.96484 33.1761 3.96484H30.1523V20.7003L30.7402 19.7094V8.3672V8.36317ZM30.7402 4.49651H33.155C33.7259 4.49651 34.17 4.64956 34.4871 4.95164C34.8043 5.25373 34.9608 5.66054 34.9608 6.16804C34.9608 6.67554 34.8043 7.07026 34.4871 7.37637C34.17 7.68248 33.7259 7.83151 33.155 7.83151H30.7402V4.49651Z" fill="#706F6F"/>
<path d="M41.3973 10.075H37.4643V3.96484H36.8765V10.6187H41.3973V10.075Z" fill="#706F6F"/>
<path d="M48.113 10.6187H48.7601L45.6263 3.96484H44.9497L41.8159 10.6187H42.4545L43.2115 9.0036H47.3645L48.113 10.6187ZM43.461 8.47193L45.288 4.55693L47.1149 8.47193H43.461Z" fill="#706F6F"/>
<path d="M54.9896 9.68428L50.5787 3.96484H49.9824V10.6187H50.5702V4.86706L55.0023 10.6187H55.5902V3.96484H54.9896V9.68428Z" fill="#706F6F"/>
<path d="M58.2037 9.0036H62.3567L63.1052 10.6187H63.7523L60.6185 3.96484H59.9419L56.8081 10.6187H57.4467L58.2037 9.0036ZM60.2802 4.55693L62.1071 8.47193H58.4532L60.2802 4.55693Z" fill="#706F6F"/>
<path d="M36.1955 14.5176L30.1479 25.7712H32.6093L36.3097 18.7186L40.0186 25.7712H42.4715L36.4281 14.5176H36.1955Z" fill="#706F6F"/>
<path d="M52.6973 15.9158C51.6062 14.9693 50.2191 14.498 48.5317 14.498H43.8628V25.7678H48.5317C49.3691 25.7678 50.143 25.651 50.845 25.4133C51.5513 25.1797 52.1687 24.8293 52.6973 24.3661C53.2767 23.8626 53.7123 23.2585 54.0126 22.5415C54.3086 21.8286 54.4566 21.0271 54.4566 20.1329C54.4566 19.2387 54.3086 18.4493 54.0126 17.7364C53.7165 17.0194 53.2767 16.4153 52.6973 15.9118V15.9158ZM51.8473 22.0461C51.6231 22.5294 51.3356 22.9 50.9803 23.1739C50.6335 23.4478 50.2402 23.629 49.8131 23.7176C49.3817 23.8143 48.9546 23.8586 48.5317 23.8586H46.1211V16.4394H48.5317C48.9419 16.4394 49.3648 16.4837 49.7962 16.5724C50.2233 16.669 50.6209 16.8462 50.9761 17.1121C51.3313 17.3779 51.6231 17.7605 51.8473 18.2479C52.0757 18.7353 52.1898 19.3717 52.1898 20.145C52.1898 20.9183 52.0757 21.5587 51.8473 22.0421V22.0461Z" fill="#706F6F"/>
<path d="M64.6744 19.3797H58.8383V14.498H56.5757V25.7718H58.8383V21.2889H64.6744V25.7718H66.9412V14.498H64.6744V19.3797Z" fill="#706F6F"/>
<path d="M79.3828 16.0032C78.8288 15.4755 78.1817 15.0526 77.4332 14.7465C76.6931 14.4364 75.8938 14.2793 75.0395 14.2793C74.1853 14.2793 73.4071 14.4364 72.6628 14.7465C71.9227 15.0526 71.2714 15.4755 70.7132 16.0032C70.1592 16.5268 69.7194 17.1471 69.3937 17.864C69.0723 18.5769 68.9116 19.3342 68.9116 20.1357C68.9116 20.9372 69.0765 21.7025 69.3937 22.4154C69.7194 23.1203 70.1592 23.7405 70.7132 24.2722C71.2672 24.7999 71.9227 25.2187 72.6628 25.5249C73.4029 25.835 74.198 25.9921 75.0395 25.9921C75.8811 25.9921 76.6889 25.835 77.4332 25.5249C78.1817 25.2187 78.8246 24.8039 79.3828 24.2722C79.9368 23.7446 80.3766 23.1203 80.7023 22.4154C81.0279 21.7025 81.1844 20.9453 81.1844 20.1357C81.1844 19.3261 81.0279 18.5729 80.7023 17.864C80.3766 17.1471 79.9368 16.5268 79.3828 16.0032ZM78.6173 21.5978C78.4101 22.0569 78.1352 22.4678 77.7842 22.8222C77.429 23.1767 77.0272 23.4586 76.5535 23.668C76.0883 23.8815 75.5809 23.9822 75.048 23.9822C74.5151 23.9822 74.0034 23.8815 73.5382 23.668C73.073 23.4586 72.6628 23.1767 72.3118 22.8222C71.9565 22.4678 71.6816 22.0569 71.4786 21.5978C71.2714 21.1386 71.1699 20.6512 71.1699 20.1357C71.1699 19.6201 71.2714 19.1449 71.4786 18.6817C71.6816 18.2104 71.9565 17.8036 72.3118 17.4572C72.6586 17.1028 73.0688 16.8249 73.5382 16.6154C74.0034 16.4019 74.5109 16.3012 75.048 16.3012C75.5851 16.3012 76.0883 16.4019 76.5535 16.6154C77.0272 16.8249 77.429 17.1028 77.7842 17.4572C78.131 17.8036 78.4059 18.2104 78.6173 18.6817C78.8203 19.1489 78.9218 19.6322 78.9218 20.1357C78.9218 20.6392 78.8203 21.1346 78.6173 21.5978Z" fill="#706F6F"/>
<path d="M91.3002 22.8835C91.0676 23.105 90.8139 23.2984 90.5306 23.4595C90.2514 23.6246 89.9554 23.7535 89.6424 23.8461C89.3295 23.9388 89.0081 23.9831 88.674 23.9831C88.1369 23.9831 87.6294 23.8784 87.1642 23.6689C86.6948 23.4595 86.2888 23.1775 85.942 22.8311C85.5952 22.4807 85.3203 22.0779 85.1173 21.6147C84.9143 21.1516 84.8086 20.6642 84.8086 20.1527C84.8086 19.6411 84.9101 19.1659 85.1173 18.6986C85.3203 18.2314 85.5952 17.8246 85.942 17.4742C86.2888 17.1238 86.6948 16.8459 87.1642 16.6364C87.6336 16.427 88.1369 16.3222 88.674 16.3222C89.0081 16.3222 89.3337 16.3665 89.6424 16.4592C89.9512 16.5518 90.2514 16.6807 90.5306 16.8459C90.8097 17.011 91.0676 17.2003 91.3002 17.4138C91.5328 17.6313 91.7358 17.8609 91.905 18.1065L94.0238 17.2889C93.7658 16.8459 93.4486 16.4431 93.068 16.0806C92.6916 15.7181 92.2729 15.4039 91.8162 15.1421C91.3594 14.8803 90.8604 14.6789 90.3275 14.5339C89.7947 14.3889 89.2407 14.3164 88.6698 14.3164C87.8282 14.3164 87.0373 14.4695 86.293 14.7796C85.5487 15.0857 84.9017 15.5046 84.3434 16.0363C83.7894 16.5639 83.3496 17.1842 83.024 17.8931C82.6983 18.602 82.5376 19.3552 82.5376 20.1567C82.5376 20.9582 82.6983 21.7114 83.024 22.4203C83.3454 23.1292 83.7852 23.7454 84.3434 24.2771C84.8974 24.8047 85.5487 25.2236 86.293 25.5338C87.0373 25.8439 87.8282 25.997 88.6698 25.997C89.2407 25.997 89.7947 25.9245 90.3275 25.7795C90.8604 25.6345 91.3552 25.4331 91.8162 25.1713C92.2729 24.9095 92.6916 24.5953 93.068 24.2328C93.4444 23.8703 93.7616 23.4595 94.0238 23.0084L91.905 22.1907C91.7316 22.4364 91.5286 22.67 91.3002 22.8915V22.8835Z" fill="#706F6F"/>
<path d="M7.84766 16.7657L16.1536 19.5529L11.121 11.5859L7.84766 16.7657Z" fill="#F9B233"/>
<path d="M26.2317 25.8238C25.9568 25.7271 25.7665 25.4935 25.7665 25.2156V3.83208H13.0581C12.6902 3.83208 12.3857 3.59445 12.2673 3.26014C12.2081 3.09098 12.0854 2.9057 11.8613 2.69626C11.6921 2.53917 11.4764 2.41833 11.2396 2.39819C10.6348 2.34181 10.1147 2.7164 9.96664 3.23598C9.96664 3.23598 9.96242 3.24 9.95819 3.24403C9.88629 3.43334 9.89475 3.83208 9.04471 3.83208H1.05176V19.766L10.3515 5.04445C10.5122 4.79473 10.804 4.66584 11.1127 4.66584C11.1127 4.66584 11.1127 4.66584 11.117 4.66584C11.1212 4.66584 11.117 4.66584 11.1212 4.66584C11.4299 4.66584 11.7217 4.7907 11.8824 5.04445L24.7896 25.4814C24.9376 25.715 24.9122 26.005 24.7303 26.2144C24.7303 26.2144 24.7303 26.2185 24.7261 26.2225C24.5485 26.432 24.2525 26.5125 23.9818 26.4239L5.63184 20.2695L1.14902 27.3704H24.0452C24.2736 27.3704 24.4935 27.4751 24.6077 27.6604C24.8741 28.0994 25.4112 28.3774 26.0033 28.2767C26.5404 28.1881 26.9802 27.7692 27.0775 27.2576C27.2001 26.6092 26.8068 26.0332 26.2232 25.8278L26.2317 25.8238Z" fill="#F9B233"/>
<path d="M27.8217 29.3158C28.1534 29.3158 28.4222 29.0597 28.4222 28.7438C28.4222 28.4279 28.1534 28.1719 27.8217 28.1719C27.4901 28.1719 27.2212 28.4279 27.2212 28.7438C27.2212 29.0597 27.4901 29.3158 27.8217 29.3158Z" fill="#F9B233"/>
<path d="M11.1213 1.63341C11.4088 1.63341 11.6414 1.41189 11.6414 1.138C11.6414 0.86411 11.4088 0.642578 11.1213 0.642578C10.8337 0.642578 10.6011 0.86411 10.6011 1.138C10.6011 1.41189 10.8337 1.63341 11.1213 1.63341Z" fill="#F9B233"/>
<path d="M18.6616 3.83203L25.7665 25.2155V3.83203H18.6616Z" fill="url(#paint0_linear_2468_6587)"/>
<path d="M6.072 3.83203L1.06055 19.7619V3.83203H6.072Z" fill="url(#paint1_linear_2468_6587)"/>
<path d="M3.77112 23.2227L23.6351 27.3672H1.15332L3.77112 23.2227Z" fill="url(#paint2_linear_2468_6587)"/>
</g>
<defs>
<linearGradient id="paint0_linear_2468_6587" x1="27.1748" y1="16.2577" x2="17.148" y2="2.63366" gradientUnits="userSpaceOnUse">
<stop stop-color="#F9B233"/>
<stop offset="1" stop-color="#F39200"/>
</linearGradient>
<linearGradient id="paint1_linear_2468_6587" x1="0.413498" y1="13.4061" x2="4.70703" y2="1.60997" gradientUnits="userSpaceOnUse">
<stop stop-color="#F9B233"/>
<stop offset="1" stop-color="#F39200"/>
</linearGradient>
<linearGradient id="paint2_linear_2468_6587" x1="15.8282" y1="28.8293" x2="2.08122" y2="22.3807" gradientUnits="userSpaceOnUse">
<stop stop-color="#F9B233"/>
<stop offset="1" stop-color="#F39200"/>
</linearGradient>
<clipPath id="clip0_2468_6587">
<rect width="96" height="29" fill="white" transform="translate(0.151367 0.494141)"/>
</clipPath>
</defs>
</svg>
