<svg width="172" height="54" viewBox="0 0 172 54" fill="none" xmlns="http://www.w3.org/2000/svg">
<path d="M54.8032 14.6548H59.1676C60.039 14.6548 60.7967 14.4823 61.4408 14.1448C62.0848 13.7998 62.5773 13.3198 62.9183 12.7048C63.2592 12.0823 63.426 11.3774 63.426 10.5749C63.426 9.77235 63.2592 9.05983 62.9183 8.44483C62.5773 7.82233 62.0848 7.34233 61.4408 6.98983C60.7967 6.64483 60.039 6.46484 59.1676 6.46484H53.75V37.6273L54.8032 35.7823V14.6623V14.6548ZM54.8032 7.45485H59.1297C60.1526 7.45485 60.9482 7.73983 61.5165 8.30233C62.0848 8.86483 62.3652 9.62234 62.3652 10.5673C62.3652 11.5123 62.0848 12.2473 61.5165 12.8173C60.9482 13.3873 60.1526 13.6648 59.1297 13.6648H54.8032V7.45485Z" fill="url(#paint0_linear_2468_6653)"/>
<path d="M73.8967 17.8423H66.8501V6.46484H65.7969V18.8548H73.8967V17.8423Z" fill="url(#paint1_linear_2468_6653)"/>
<path d="M85.9307 18.8548H87.09L81.4754 6.46484H80.263L74.6484 18.8548H75.7925L77.1489 15.8474H84.5896L85.9307 18.8548ZM77.5959 14.8573L80.8692 7.56734L84.1425 14.8573H77.5959Z" fill="url(#paint2_linear_2468_6653)"/>
<path d="M98.2486 17.1148L90.3457 6.46484H89.2773V18.8548H90.3305V8.14484L98.2713 18.8548H99.3246V6.46484H98.2486V17.1148Z" fill="url(#paint3_linear_2468_6653)"/>
<path d="M104.008 15.8474H111.449L112.79 18.8548H113.949L108.335 6.46484H107.122L101.508 18.8548H102.652L104.008 15.8474ZM107.729 7.56734L111.002 14.8573H104.455L107.729 7.56734Z" fill="url(#paint4_linear_2468_6653)"/>
<path d="M64.5774 26.1133L53.7422 47.0683H58.1521L64.782 33.9358L71.4271 47.0683H75.8218L64.9942 26.1133H64.5774Z" fill="url(#paint5_linear_2468_6653)"/>
<path d="M94.145 28.7181C92.1901 26.9556 89.7048 26.0781 86.6815 26.0781H78.3164V47.0631H86.6815C88.1818 47.0631 89.5684 46.8456 90.8262 46.4031C92.0916 45.9681 93.1978 45.3156 94.145 44.4531C95.183 43.5156 95.9635 42.3906 96.5014 41.0556C97.0318 39.7281 97.297 38.2356 97.297 36.5706C97.297 34.9056 97.0318 33.4356 96.5014 32.1081C95.971 30.7731 95.183 29.6481 94.145 28.7106V28.7181ZM92.622 40.1331C92.2204 41.0331 91.7051 41.7231 91.0687 42.2331C90.4473 42.7431 89.7427 43.0806 88.9774 43.2456C88.2045 43.4256 87.4393 43.5081 86.6815 43.5081H82.3626V29.6931H86.6815C87.4165 29.6931 88.1742 29.7756 88.9471 29.9406C89.7124 30.1206 90.4246 30.4506 91.0611 30.9456C91.6976 31.4406 92.2204 32.1531 92.622 33.0606C93.0311 33.9681 93.2357 35.1531 93.2357 36.5931C93.2357 38.0331 93.0311 39.2256 92.622 40.1256V40.1331Z" fill="url(#paint6_linear_2468_6653)"/>
<path d="M115.604 35.1681H105.148V26.0781H101.094V47.0706H105.148V38.7231H115.604V47.0706H119.665V26.0781H115.604V35.1681Z" fill="url(#paint7_linear_2468_6653)"/>
<path d="M141.956 28.8819C140.964 27.8994 139.804 27.1119 138.463 26.5419C137.137 25.9644 135.705 25.6719 134.175 25.6719C132.644 25.6719 131.25 25.9644 129.916 26.5419C128.59 27.1119 127.423 27.8994 126.423 28.8819C125.431 29.8569 124.643 31.0119 124.059 32.3469C123.483 33.6744 123.195 35.0844 123.195 36.5769C123.195 38.0694 123.491 39.4944 124.059 40.8219C124.643 42.1344 125.431 43.2894 126.423 44.2794C127.416 45.2619 128.59 46.0419 129.916 46.6119C131.242 47.1894 132.667 47.4819 134.175 47.4819C135.682 47.4819 137.13 47.1894 138.463 46.6119C139.804 46.0419 140.956 45.2694 141.956 44.2794C142.949 43.2969 143.737 42.1344 144.32 40.8219C144.904 39.4944 145.184 38.0844 145.184 36.5769C145.184 35.0694 144.904 33.6669 144.32 32.3469C143.737 31.0119 142.949 29.8569 141.956 28.8819ZM140.585 39.2994C140.213 40.1544 139.721 40.9194 139.092 41.5794C138.456 42.2394 137.736 42.7644 136.887 43.1544C136.054 43.5519 135.144 43.7394 134.19 43.7394C133.235 43.7394 132.318 43.5519 131.485 43.1544C130.651 42.7644 129.916 42.2394 129.287 41.5794C128.651 40.9194 128.158 40.1544 127.795 39.2994C127.423 38.4444 127.241 37.5369 127.241 36.5769C127.241 35.6169 127.423 34.7319 127.795 33.8694C128.158 32.9919 128.651 32.2344 129.287 31.5894C129.909 30.9294 130.644 30.4119 131.485 30.0219C132.318 29.6244 133.227 29.4369 134.19 29.4369C135.152 29.4369 136.054 29.6244 136.887 30.0219C137.736 30.4119 138.456 30.9294 139.092 31.5894C139.713 32.2344 140.206 32.9919 140.585 33.8694C140.948 34.7394 141.13 35.6394 141.13 36.5769C141.13 37.5144 140.948 38.4369 140.585 39.2994Z" fill="url(#paint8_linear_2468_6653)"/>
<path d="M163.305 41.6908C162.888 42.1033 162.434 42.4633 161.926 42.7633C161.426 43.0708 160.896 43.3108 160.335 43.4833C159.774 43.6558 159.198 43.7383 158.6 43.7383C157.638 43.7383 156.728 43.5433 155.895 43.1533C155.054 42.7633 154.326 42.2383 153.705 41.5933C153.084 40.9408 152.591 40.1908 152.227 39.3283C151.864 38.4658 151.674 37.5583 151.674 36.6058C151.674 35.6533 151.856 34.7683 152.227 33.8983C152.591 33.0283 153.084 32.2708 153.705 31.6183C154.326 30.9658 155.054 30.4483 155.895 30.0583C156.736 29.6683 157.638 29.4733 158.6 29.4733C159.198 29.4733 159.782 29.5558 160.335 29.7283C160.888 29.9008 161.426 30.1408 161.926 30.4483C162.426 30.7558 162.888 31.1083 163.305 31.5058C163.722 31.9108 164.086 32.3383 164.389 32.7958L168.185 31.2733C167.723 30.4483 167.154 29.6983 166.472 29.0233C165.798 28.3483 165.048 27.7633 164.23 27.2758C163.411 26.7883 162.517 26.4133 161.562 26.1433C160.608 25.8733 159.615 25.7383 158.592 25.7383C157.084 25.7383 155.667 26.0233 154.334 26.6008C153 27.1708 151.841 27.9508 150.841 28.9408C149.848 29.9233 149.06 31.0783 148.477 32.3983C147.893 33.7183 147.605 35.1208 147.605 36.6133C147.605 38.1058 147.893 39.5083 148.477 40.8283C149.053 42.1483 149.841 43.2958 150.841 44.2858C151.834 45.2683 153 46.0483 154.334 46.6258C155.667 47.2033 157.084 47.4883 158.592 47.4883C159.615 47.4883 160.608 47.3533 161.562 47.0833C162.517 46.8133 163.404 46.4383 164.23 45.9508C165.048 45.4633 165.798 44.8783 166.472 44.2033C167.147 43.5283 167.715 42.7633 168.185 41.9233L164.389 40.4008C164.078 40.8583 163.714 41.2933 163.305 41.7058V41.6908Z" fill="url(#paint9_linear_2468_6653)"/>
<path d="M13.7891 30.2974L28.6705 35.4873L19.6537 20.6523L13.7891 30.2974Z" fill="#F9B233"/>
<path d="M46.7273 47.1656C46.2348 46.9856 45.8938 46.5506 45.8938 46.0331V6.21561H23.1246C22.4654 6.21561 21.9199 5.77312 21.7077 5.15062C21.6016 4.83563 21.3819 4.49063 20.9803 4.10063C20.6772 3.80813 20.2908 3.58311 19.8665 3.54561C18.783 3.44061 17.851 4.13813 17.5858 5.10563C17.5858 5.10563 17.5782 5.11312 17.5706 5.12062C17.4418 5.47312 17.457 6.21561 15.934 6.21561H1.61328V35.8856L18.2753 8.47312C18.5632 8.00812 19.086 7.76812 19.6392 7.76812C19.6392 7.76812 19.6392 7.76812 19.6468 7.76812C19.6543 7.76812 19.6468 7.76812 19.6543 7.76812C20.2075 7.76812 20.7303 8.00062 21.0182 8.47312L44.1435 46.5281C44.4087 46.9631 44.3632 47.5031 44.0374 47.8931C44.0374 47.8931 44.0374 47.9006 44.0298 47.9081C43.7116 48.2981 43.1812 48.4481 42.6963 48.2831L9.81926 36.8231L1.78754 50.0456H42.8099C43.2191 50.0456 43.6131 50.2406 43.8177 50.5856C44.295 51.4031 45.2573 51.9206 46.3181 51.7331C47.2804 51.5681 48.0684 50.7881 48.2427 49.8356C48.4624 48.6281 47.7578 47.5556 46.7121 47.1731L46.7273 47.1656Z" fill="#F9B233"/>
<path d="M49.5759 53.6671C50.1702 53.6671 50.6519 53.1903 50.6519 52.6021C50.6519 52.0139 50.1702 51.5371 49.5759 51.5371C48.9817 51.5371 48.5 52.0139 48.5 52.6021C48.5 53.1903 48.9817 53.6671 49.5759 53.6671Z" fill="#F9B233"/>
<path d="M19.6546 2.12038C20.1699 2.12038 20.5866 1.7079 20.5866 1.1979C20.5866 0.687899 20.1699 0.275391 19.6546 0.275391C19.1394 0.275391 18.7227 0.687899 18.7227 1.1979C18.7227 1.7079 19.1394 2.12038 19.6546 2.12038Z" fill="#F9B233"/>
<path d="M33.1641 6.2168L45.8936 46.0343V6.2168H33.1641Z" fill="url(#paint10_linear_2468_6653)"/>
<path d="M10.6078 6.2168L1.62891 35.8793V6.2168H10.6078Z" fill="url(#paint11_linear_2468_6653)"/>
<path d="M6.4871 42.3223L42.0767 50.0398H1.79688L6.4871 42.3223Z" fill="url(#paint12_linear_2468_6653)"/>
<defs>
<linearGradient id="paint0_linear_2468_6653" x1="60.0659" y1="48.6205" x2="52.8526" y2="48.4268" gradientUnits="userSpaceOnUse">
<stop stop-color="#F9B233"/>
<stop offset="1" stop-color="#F39200"/>
</linearGradient>
<linearGradient id="paint1_linear_2468_6653" x1="71.084" y1="23.2256" x2="65.0606" y2="22.8851" gradientUnits="userSpaceOnUse">
<stop stop-color="#F9B233"/>
<stop offset="1" stop-color="#F39200"/>
</linearGradient>
<linearGradient id="paint2_linear_2468_6653" x1="82.7696" y1="23.2256" x2="73.5574" y2="22.4257" gradientUnits="userSpaceOnUse">
<stop stop-color="#F9B233"/>
<stop offset="1" stop-color="#F39200"/>
</linearGradient>
<linearGradient id="paint3_linear_2468_6653" x1="95.8356" y1="23.2256" x2="88.3768" y2="22.7026" gradientUnits="userSpaceOnUse">
<stop stop-color="#F9B233"/>
<stop offset="1" stop-color="#F39200"/>
</linearGradient>
<linearGradient id="paint4_linear_2468_6653" x1="109.629" y1="23.2256" x2="100.417" y2="22.4257" gradientUnits="userSpaceOnUse">
<stop stop-color="#F9B233"/>
<stop offset="1" stop-color="#F39200"/>
</linearGradient>
<linearGradient id="paint5_linear_2468_6653" x1="68.1546" y1="54.4606" x2="51.8183" y2="52.972" gradientUnits="userSpaceOnUse">
<stop stop-color="#F9B233"/>
<stop offset="1" stop-color="#F39200"/>
</linearGradient>
<linearGradient id="paint6_linear_2468_6653" x1="90.7059" y1="54.466" x2="76.632" y2="53.3652" gradientUnits="userSpaceOnUse">
<stop stop-color="#F9B233"/>
<stop offset="1" stop-color="#F39200"/>
</linearGradient>
<linearGradient id="paint7_linear_2468_6653" x1="113.216" y1="54.4761" x2="99.442" y2="53.4223" gradientUnits="userSpaceOnUse">
<stop stop-color="#F9B233"/>
<stop offset="1" stop-color="#F39200"/>
</linearGradient>
<linearGradient id="paint8_linear_2468_6653" x1="137.548" y1="55.1758" x2="121.268" y2="53.7564" gradientUnits="userSpaceOnUse">
<stop stop-color="#F9B233"/>
<stop offset="1" stop-color="#F39200"/>
</linearGradient>
<linearGradient id="paint9_linear_2468_6653" x1="161.039" y1="55.161" x2="145.788" y2="53.9132" gradientUnits="userSpaceOnUse">
<stop stop-color="#F9B233"/>
<stop offset="1" stop-color="#F39200"/>
</linearGradient>
<linearGradient id="paint10_linear_2468_6653" x1="48.4168" y1="29.3543" x2="29.5439" y2="4.68002" gradientUnits="userSpaceOnUse">
<stop stop-color="#F9B233"/>
<stop offset="1" stop-color="#F39200"/>
</linearGradient>
<linearGradient id="paint11_linear_2468_6653" x1="0.469611" y1="24.0443" x2="8.70146" y2="2.28315" gradientUnits="userSpaceOnUse">
<stop stop-color="#F9B233"/>
<stop offset="1" stop-color="#F39200"/>
</linearGradient>
<linearGradient id="paint12_linear_2468_6653" x1="28.0894" y1="52.7623" x2="3.12534" y2="41.4946" gradientUnits="userSpaceOnUse">
<stop stop-color="#F9B233"/>
<stop offset="1" stop-color="#F39200"/>
</linearGradient>
</defs>
</svg>
